<?xml version="1.0"?>
<svg xmlns:dc="http://purl.org/dc/elements/1.1/" xmlns:cc="http://creativecommons.org/ns#" xmlns:rdf="http://www.w3.org/1999/02/22-rdf-syntax-ns#" xmlns:svg="http://www.w3.org/2000/svg" xmlns="http://www.w3.org/2000/svg" viewBox="0 0 176.6396 45.759869" height="45.759869" width="176.6396" xml:space="preserve" id="svg2" version="1.1"><metadata id="metadata8"><RDF><Work><format>image/svg+xml</format><type></type></Work></RDF></metadata><defs id="defs6"></defs><g transform="matrix(1.3333333,0,0,-1.3333333,0,45.759867)" id="g10"><g id="g12"><path id="path14" style="fill:#e41d32;fill-opacity:1;fill-rule:nonzero;stroke:none" d="m 67.8192,0.654 h 9.0096 v 10.9414 h 10.2986 c 13.57,0.8787 13.591,22.5261 0.3693,22.5261 H 54.3064 l 3.6567,-9.0111 26.589,0.002 c 3.6643,0 3.5994,-4.5074 0,-4.5074 H 67.8192 Z"></path><path id="path16" style="fill:#e41d32;fill-opacity:1;fill-rule:nonzero;stroke:none" d="m 102.5734,0.654 h 9.0099 v 10.9414 h 10.2985 c 13.57,0.8807 13.5374,22.5261 0.3155,22.5261 H 98.0688 l 3.6377,-9.0111 17.0198,0.002 c 3.6646,0 3.5362,-4.5074 -0.0632,-4.5074 h -16.0897 z"></path><path id="path18" style="fill:#e41d32;fill-opacity:1;fill-rule:nonzero;stroke:none" d="M 13.7568,0.6559 0.2398,34.1215 h 9.0119 l 9.0099,-21.8806 9.01,21.8806 v 0 h 9.011 L 22.7662,0.6559 Z"></path><path id="path20" style="fill:#e41d32;fill-opacity:1;fill-rule:nonzero;stroke:none" d="M 50.4408,9.6656 40.788,34.1215 h 9.0099 L 63.3144,0.6559 H 27.2716 L 34.3514,18.032 H 43.363 L 40.1426,9.6656 v 0 z"></path><path id="path22" style="fill:#e41d32;fill-opacity:1;fill-rule:nonzero;stroke:none" d="m 128.9483,5.04 h -0.7067 V 3.6831 h 0.7067 c 0.4,0 0.6812,0.0493 0.8405,0.1493 0.1607,0.1015 0.2432,0.2696 0.2432,0.5091 0,0.2472 -0.0862,0.4272 -0.2568,0.5338 -0.1681,0.1094 -0.4462,0.1647 -0.8269,0.1647 z m 0.1072,0.3852 c 0.5303,0 0.9246,-0.0861 1.1812,-0.2548 0.2545,-0.1704 0.3809,-0.4329 0.3809,-0.7886 0,-0.2662 -0.0802,-0.4881 -0.2412,-0.6687 -0.1627,-0.1797 -0.3773,-0.2871 -0.6488,-0.3251 l 0.8421,-1.7419 h -0.6508 l -0.7965,1.6594 h -0.8808 V 1.6461 h -0.5686 v 3.7791 z m 2.8255,-1.957 c 0,0.3985 -0.0705,0.7772 -0.214,1.1316 -0.1417,0.3546 -0.3484,0.6681 -0.6188,0.9382 -0.2812,0.2776 -0.5992,0.4902 -0.955,0.6376 -0.3583,0.1476 -0.7373,0.2219 -1.1355,0.2219 -0.3889,0 -0.7563,-0.0728 -1.1047,-0.2146 -0.3467,-0.1437 -0.6585,-0.3537 -0.9343,-0.6259 -0.2832,-0.2891 -0.4995,-0.6125 -0.6508,-0.9683 -0.1511,-0.3563 -0.2259,-0.7279 -0.2259,-1.1106 0,-0.3847 0.0731,-0.7543 0.2219,-1.1049 0.1474,-0.3524 0.3603,-0.6679 0.6378,-0.9477 0.2792,-0.2795 0.5973,-0.4921 0.9496,-0.6372 0.3521,-0.1494 0.7214,-0.2225 1.1064,-0.2225 0.3886,0 0.7619,0.0751 1.1216,0.2225 0.3603,0.1508 0.6821,0.3637 0.9689,0.6449 0.2721,0.2645 0.4791,0.5706 0.6208,0.915 0.1434,0.3427 0.212,0.7163 0.212,1.12 z m -2.9233,3.2953 c 0.4518,0 0.8787,-0.0825 1.279,-0.2452 0.3982,-0.1667 0.7503,-0.404 1.0587,-0.718 0.3044,-0.3045 0.5383,-0.6549 0.699,-1.0548 0.1647,-0.3986 0.2452,-0.8195 0.2452,-1.2634 0,-0.4482 -0.0785,-0.8677 -0.2398,-1.2603 -0.1587,-0.3901 -0.394,-0.737 -0.7044,-1.0415 -0.3195,-0.3154 -0.6797,-0.5587 -1.0837,-0.7273 -0.4039,-0.1704 -0.8215,-0.2549 -1.254,-0.2549 -0.4403,0 -0.8558,0.0825 -1.2518,0.2489 -0.3966,0.1667 -0.7489,0.4079 -1.0588,0.724 -0.314,0.3104 -0.5513,0.6622 -0.716,1.0607 -0.1647,0.398 -0.2472,0.8136 -0.2472,1.2504 0,0.4289 0.0845,0.8458 0.2546,1.2495 0.1667,0.4065 0.4096,0.7682 0.7276,1.0876 0.3005,0.3065 0.6452,0.5403 1.0378,0.703 0.3906,0.1608 0.8096,0.2413 1.2538,0.2413"></path></g></g></svg>